<?xml version="1.0" encoding="UTF-8"?>
<svg id="Layer_1" data-name="Layer 1" xmlns="http://www.w3.org/2000/svg" version="1.1" viewBox="0 0 163.7 220.5">
  <defs>
    <style>
      .cls-1 {
        fill: #4794d0;
        stroke-width: 0px;
      }
    </style>
  </defs>
  <path class="cls-1" d="M162.3,3.8v39.1c0,7.2-2.9,14.1-8,19.1-8.1,7.8-17.8,14.7-29.6,19.7-2.7,1.1-5.4,2.1-8.2,3v-35.1c0-25.3,20.5-45.8,45.8-45.8h0Z"/>
  <path class="cls-1" d="M1.5,145.7c0-1.6,0-3.2,0-4.8V.8h3c23.6,0,42.7,19.1,42.7,42.7v68.1c0,3.3-2.2,6.3-5.3,7.4-15.7,5.3-29.6,14.6-40.3,26.7h0Z"/>
  <path class="cls-1" d="M162.3,79.8v59.7c0,11.8-1.3,22.2-3.9,31.4-2.3,8.1-5.6,15.2-9.9,21.3-2,2.8-4.1,5.3-6.5,7.7-13.5,13.2-33.6,19.8-60.2,19.8s-46.7-6.5-60.2-19.5c-8.3-8-14-15.5-17.2-28.5,9.6-16.1,24.7-28.5,42.7-34.6v1.7c0,9.3.8,14.1,2.5,20.3,1.7,6.2,5,10.9,10,14,5.1,3.1,12.4,4.6,22.2,4.6s17.1-1.6,22-4.6c4.9-3.1,8.3-7.7,10.1-13.9,1.2-4.3,2-9.4,2.4-15.3.2-2.4.2-4.9.2-7.6v-31.4c4.8-1.3,9.6-3,14.2-4.9,12.4-5.2,22.8-12.2,31.5-20.1h0Z"/>
</svg>